<?xml version="1.0" encoding="UTF-8"?>
<svg version="1.1" xmlns="http://www.w3.org/2000/svg" width="225" height="225">
<path d="M0 0 C74.25 0 148.5 0 225 0 C225 74.25 225 148.5 225 225 C150.75 225 76.5 225 0 225 C0 150.75 0 76.5 0 0 Z " fill="#E20614" transform="translate(0,0)"/>
<path d="M0 0 C35.31 0 70.62 0 107 0 C107 17.82 107 35.64 107 54 C89.84 54.33 72.68 54.66 55 55 C62.27219603 69.30696951 62.27219603 69.30696951 69.57055664 83.60058594 C70.47637527 85.39470191 71.38130323 87.18926797 72.28515625 88.984375 C72.76529175 89.9139502 73.24542725 90.84352539 73.7401123 91.80126953 C74.18689331 92.69410645 74.63367432 93.58694336 75.09399414 94.50683594 C75.48704239 95.27960876 75.88009064 96.05238159 76.28504944 96.84857178 C77.12493115 99.37594263 77.03191833 100.56221784 76 103 C64.91262413 109.17235358 48.89864592 108.70962763 37 105.4375 C21.90164168 99.95763898 10.82567875 89.36430323 3.84397888 75.00511169 C0.00916131 65.89441269 -0.41002131 57.1437756 -0.29296875 47.36328125 C-0.28994751 46.15555054 -0.28692627 44.94781982 -0.28381348 43.70349121 C-0.26824861 39.23973916 -0.22636584 34.77610999 -0.1875 30.3125 C-0.125625 20.309375 -0.06375 10.30625 0 0 Z " fill="#FEFDFD" transform="translate(41,38)"/>
<path d="M0 0 C33.66 0 67.32 0 102 0 C99.93667206 6.18998382 97.98157894 11.30701296 94.875 16.875 C91.5432801 22.99683015 88.43753057 29.17976071 85.5 35.5 C82.30425209 42.360456 78.89790897 49.06120965 75.30688477 55.72216797 C72.31625402 61.30685291 69.61337453 66.99637458 66.95776367 72.74633789 C64.11298417 78.86300468 60.97956033 84.79755929 57.765625 90.7265625 C55.75908187 94.44665794 53.85899202 98.20455796 52 102 C51.34 102 50.68 102 50 102 C43.47595736 88.99859016 36.95652247 75.99487903 30.44242859 62.98848152 C27.41789008 56.94972669 24.39185327 50.91173141 21.36230469 44.87548828 C18.44094248 39.05479135 15.52373455 33.23202404 12.60910034 27.40795517 C11.49407603 25.18161397 10.37763927 22.95597961 9.25979614 20.7310524 C7.69944734 17.62478348 6.144051 14.51608355 4.58984375 11.40673828 C4.12230682 10.47885498 3.6547699 9.55097168 3.17306519 8.5949707 C2.75235748 7.75080597 2.33164978 6.90664124 1.89819336 6.03689575 C1.52947617 5.30130495 1.16075897 4.56571415 0.78086853 3.80783272 C0 2 0 2 0 0 Z " fill="#FEFDFD" transform="translate(100,95)"/>
<path d="M0 0 C0.56864651 0.16173675 1.13729301 0.32347349 1.72317123 0.49011135 C4.03442506 1.00770938 6.06390444 1.13822141 8.42926025 1.15821838 C9.75011627 1.17290161 9.75011627 1.17290161 11.09765625 1.18788147 C12.05575195 1.19363693 13.01384766 1.1993924 14.00097656 1.20532227 C15.52340973 1.22017166 15.52340973 1.22017166 17.07659912 1.23532104 C20.43125069 1.26690746 23.78591641 1.29168228 27.140625 1.31640625 C29.46661751 1.33697824 31.79260631 1.35797477 34.11859131 1.37937927 C40.24073271 1.43457463 46.36290772 1.48399516 52.48510742 1.53222656 C58.73228953 1.58246005 64.97942285 1.63813648 71.2265625 1.69335938 C83.48433332 1.80090996 95.7421465 1.90236188 108 2 C107.67 2.66 107.34 3.32 107 4 C73.34 3.67 39.68 3.34 5 3 C12.26 17.52 19.52 32.04 27 47 C25.02 47.495 25.02 47.495 23 48 C22.72961914 47.42894531 22.45923828 46.85789063 22.18066406 46.26953125 C16.16877291 33.59063927 10.04403811 20.97850983 3.70996094 8.45703125 C3.22430664 7.49410156 2.73865234 6.53117187 2.23828125 5.5390625 C1.80555908 4.68521973 1.37283691 3.83137695 0.92700195 2.95166016 C0 1 0 1 0 0 Z " fill="#DD4C50" transform="translate(95,92)"/>
<path d="M0 0 C4 1 4 1 5.75 3.8125 C7 7 7 7 7 11 C6.34 11 5.68 11 5 11 C3.35 7.37 1.7 3.74 0 0 Z " fill="#DC0C12" transform="translate(95,92)"/>
</svg>
